<?xml version="1.0" encoding="UTF-8"?>
<!DOCTYPE svg PUBLIC "-//W3C//DTD SVG 1.1//EN" "http://www.w3.org/Graphics/SVG/1.1/DTD/svg11.dtd">
<!-- Creator: CorelDRAW SE (64-Bit) -->
<svg xmlns="http://www.w3.org/2000/svg" xml:space="preserve" width="227.56mm" height="59.7735mm" version="1.1" style="shape-rendering:geometricPrecision; text-rendering:geometricPrecision; image-rendering:optimizeQuality; fill-rule:evenodd; clip-rule:evenodd"
viewBox="0 0 22746.36 5974.83"
 xmlns:xlink="http://www.w3.org/1999/xlink"
 xmlns:xodm="http://www.corel.com/coreldraw/odm/2003">
 <defs>
  <style type="text/css">
   <![CDATA[
    .fil1 {fill:#505050;fill-rule:nonzero}
    .fil0 {fill:#E40520;fill-rule:nonzero}
   ]]>
  </style>
 </defs>
 <g id="Warstwa_x0020_1">
  <metadata id="CorelCorpID_0Corel-Layer"/>
  <g id="_2336338382336">
   <path class="fil0" d="M8672.34 2161.47l895.02 0 -447.52 -1012.26 -447.5 1012.26zm12505.57 589.68c568.83,0 1012.2,-455.88 1012.2,-1053.99 0,-602.19 -422.42,-1058.17 -1012.2,-1058.17 -581.31,0 -1012.09,455.99 -1012.09,1058.17 0,589.77 443.32,1053.99 1012.09,1053.99zm-4.14 -2580.56c911.85,0 1572.6,639.9 1572.6,1518.12 0,865.78 -673.4,1518.25 -1572.6,1518.25 -899.26,0 -1568.29,-648.2 -1568.29,-1518.25 0,-848.92 685.79,-1518.12 1568.29,-1518.12zm-4737.12 527l0 1150.09 384.76 0c485.18,0 652.49,-259.21 652.49,-581.36 0,-322.02 -163.17,-568.72 -652.49,-568.72l-384.76 0zm-518.65 -476.81l941.06 0c782.09,0 1175.28,430.72 1175.28,1045.53 0,405.77 -167.32,727.84 -535.35,899.35l752.79 995.37 -606.43 0 -623.21 -865.83c-83.54,8.37 -171.5,12.62 -263.44,12.62l-322.05 0 0 853.2 -518.65 0 0 -2940.25zm-1592.13 1396.9l0 1258.97c0,0 -439.18,334.51 -1137.6,334.51 -995.45,0 -1656.21,-652.39 -1656.21,-1522.45 0,-848.92 715.19,-1518.16 1585.07,-1518.16 656.61,0 1037.24,238.4 1037.24,238.4l-179.79 443.43c0,0 -380.6,-192.47 -769.56,-192.47 -690.1,0 -1112.52,434.96 -1112.52,1037.25 0,589.79 451.7,1024.69 1062.33,1024.69 271.82,0 510.21,-58.49 669.15,-117.07l0 -522.81 -819.74 0 0 -464.29 1321.63 0zm-6092.72 1543.27l-543.68 0 1380.14 -2965.25 117.18 0 1380.21 2965.25 -556.27 0 -259.35 -585.48 -1263.12 0 -255.11 585.48z"/>
   <path class="fil1" d="M9009.39 4910.91c0,99.73 -14.63,189.12 -44.29,267.81 -29.24,79.11 -72.24,145.73 -129.39,200.3 -57.15,54.59 -127.69,96.32 -211.51,124.67 -84.25,28.82 -180.52,43.02 -289.72,43.02 -102.27,0 -194.26,-12.91 -275.51,-38.27 -81.7,-25.78 -150.44,-64.47 -206.77,-116.5 -56.34,-52.01 -99.27,-116.95 -128.94,-194.74 -29.68,-77.78 -44.68,-168.51 -44.68,-272.5l0 -1108.65c0,-8.13 2.54,-15.9 7.73,-22.76 4.68,-6.46 13.71,-12.02 26.61,-16.33 12.9,-4.31 30.11,-7.36 51.17,-9.9 20.62,-2.6 47.73,-3.9 80.38,-3.9 31.42,0 58.03,1.3 78.66,3.9 21.06,2.54 37.83,5.59 50.3,9.9 12.44,4.31 21.49,9.88 27.09,16.33 5.56,6.86 8.18,14.63 8.18,22.76l0 1080.29c0,64.85 8.17,120.76 24.06,168.45 15.95,47.28 38.69,86.84 68.79,117.81 29.67,30.92 65.31,54.62 107.01,70.07 41.68,15.47 88.17,23.16 139.27,23.16 51.98,0 98.85,-8.12 139.72,-24.02 41.25,-15.92 76.03,-39.14 104.89,-69.66 28.36,-30.92 50.73,-68.76 66.18,-113.46 15.51,-45.16 23.19,-96.29 23.19,-153.49l0 -1099.16c0,-8.13 2.61,-15.9 7.78,-22.76 4.74,-6.46 13.71,-12.02 26.25,-16.33 12.4,-4.31 29.61,-7.36 51.1,-9.9 21.5,-2.6 48.17,-3.9 79.95,-3.9 31.85,0 58.09,1.3 78.72,3.9 20.63,2.54 37.38,5.59 49.79,9.9 12.52,4.31 21.55,9.88 26.24,16.33 5.18,6.86 7.78,14.63 7.78,22.76l0 1094.87zm1467.07 -12.43c0,99.69 -10.73,189.53 -32.67,269.51 -21.92,79.49 -53.27,147.42 -94.16,203.75 -41.25,56.28 -91.98,99.28 -151.74,129.78 -60.14,30.14 -128.08,45.19 -204.16,45.19 -37.83,0 -73.04,-3.47 -105.75,-10.75 -32.67,-6.9 -64.01,-18.5 -93.68,-34.45 -30.09,-16.28 -59.32,-36.09 -88.11,-60.56 -28.8,-24.52 -58.51,-53.74 -88.56,-88.14l0 122.53c0,9.46 -2.61,17.16 -6.85,23.62 -4.8,6.04 -12.53,11.64 -22.81,15.92 -10.79,3.84 -24.54,6.89 -42.13,8.6 -17.63,1.74 -39.12,2.59 -64.49,2.59 -25.8,0 -47.3,-0.85 -64.5,-2.59 -17.57,-1.71 -31.36,-4.76 -41.69,-8.6 -10.73,-4.29 -18.02,-9.46 -21.87,-15.92 -4.31,-6.46 -6.49,-14.16 -6.49,-23.17l0 -1657.11c0,-8.6 2.61,-15.92 7.74,-22.79 4.73,-6.45 13.32,-12.48 25.79,-16.79 12.03,-4.73 28.36,-8.18 48.17,-10.72 20.2,-2.61 45.99,-3.91 76.91,-3.91 30.97,0 56.77,1.3 76.96,3.91 19.77,2.54 36.15,5.99 48.17,10.72 12.46,4.31 21.08,10.35 25.75,16.79 5.17,6.87 7.78,14.59 7.78,22.79l0 621.57c28.36,-28.41 57.17,-52.88 85.52,-73.11 28.36,-20.17 57.2,-36.49 85.55,-49.83 28.36,-12.89 57.6,-22.39 88.12,-28.36 30.11,-5.62 61.88,-8.61 95.41,-8.61 83.01,0 153.49,16.72 211.51,49.83 57.58,33.13 104.89,77.84 141.4,134.12 36.58,55.87 63.19,121.65 79.96,196.9 16.76,75.23 24.93,154.28 24.93,237.29zm-327.55 21.92c0,-47.76 -3.42,-93.74 -10.72,-137.99 -6.87,-44.71 -19.38,-83.85 -36.95,-118.21 -17.63,-34.42 -40.88,-61.93 -68.81,-82.11 -27.97,-20.63 -63.62,-30.96 -106.62,-30.96 -20.62,0 -41.27,2.98 -61.44,8.58 -20.2,6.06 -40.89,16.34 -62.33,30.53 -21.49,14.17 -43.43,32.66 -66.17,55.05 -22.82,22.75 -46.44,50.73 -71.81,84.22l0 372.67c44.7,56.75 87.25,99.75 127.71,129.42 40.8,29.69 83.37,44.23 128.06,44.23 40.82,0 76.09,-10.26 104.45,-31.35 28.36,-21.08 52.43,-48.16 71.36,-81.65 18.51,-33.54 32.24,-71.79 40.82,-114.39 8.17,-42.55 12.46,-85.5 12.46,-128.05zm1618.87 -39.15c0,38.71 -8.61,67.08 -25.81,85.56 -17.18,18.45 -40.8,27.95 -71.34,27.95l-684.33 0c0,47.72 5.6,90.71 17.2,129.82 11.16,38.69 29.22,71.75 53.71,98.83 24.93,27.11 56.72,47.75 95.86,61.94 39.12,14.18 85.56,21.46 140.15,21.46 55.47,0 104.01,-3.84 146.14,-12.04 41.68,-8.12 78.21,-16.72 108.74,-26.62 30.55,-9.89 55.91,-18.48 76.09,-26.66 20.2,-8.19 36.52,-12.03 48.99,-12.03 7.79,0 14.2,1.3 18.94,4.29 5.17,3 9.48,8.2 12.89,15.92 3,7.3 5.61,18.05 6.87,31.77 1.3,13.79 1.73,31.44 1.73,52.08 0,18.46 -0.43,34.36 -1.29,47.25 -0.88,12.91 -2.18,24.1 -3.88,33.09 -1.74,9.49 -3.86,17.23 -7.28,23.22 -3.49,6.45 -7.74,12.47 -13.35,18.48 -5.6,5.59 -20.19,13.77 -44.74,24.07 -24.48,10.35 -55.4,20.24 -93.23,30.12 -37.81,9.89 -80.82,18.48 -129.37,25.78 -48.6,7.28 -100.65,11.2 -156.04,11.2 -100.21,0 -187.46,-12.49 -262.67,-37.85 -74.8,-24.95 -137.55,-63.21 -188.28,-114.33 -50.3,-51.13 -87.68,-116.08 -112.61,-193.89 -24.48,-78.21 -36.94,-169.81 -36.94,-274.68 0,-99.69 12.83,-189.53 39.07,-269.93 25.8,-79.97 63.63,-147.9 113.48,-203.74 49.41,-55.89 109.61,-98.44 180.54,-127.68 71.35,-29.69 151.35,-44.26 240.3,-44.26 94.16,0 174.54,13.72 241.16,41.68 67.07,27.5 121.66,66.19 164.59,115.18 42.57,49 74.42,107.48 94.61,174.56 20.2,67.02 30.1,140.15 30.1,219.19l0 50.3zm-306.93 -90.24c2.56,-89 -15.44,-159.08 -53.71,-209.76 -38.26,-51.2 -97.17,-76.52 -177.12,-76.52 -40.44,0 -75.65,7.74 -105.32,22.79 -30.11,15.03 -55.04,35.26 -74.79,61.02 -19.76,25.76 -34.84,55.9 -45.12,90.68 -10.78,35.29 -16.82,72.24 -18.5,111.78l474.55 0zm1329.97 597.07c0,24.49 -1.25,45.14 -3.87,62.76 -2.57,17.19 -6.04,30.92 -9.85,40.81 -4.37,10.35 -9.91,17.2 -16.38,21.09 -6.87,3.84 -14.6,5.58 -22.76,5.58l-735.49 0c-22.37,0 -39.94,-7.73 -51.98,-22.78 -12.51,-15.07 -18.5,-39.99 -18.5,-74.37l0 -58.48c0,-15.02 0.43,-28.78 1.68,-40.84 1.31,-12.03 3.92,-24.06 7.8,-35.21 3.81,-11.67 9.03,-23.22 15,-34.84 6.49,-12.03 14.64,-24.96 24.94,-39.14l422.52 -648.68 -400.58 0c-15.89,0 -28.8,-10.26 -38.69,-30.5 -9.91,-20.15 -14.64,-52.43 -14.64,-97.14 0,-24.52 0.86,-44.68 3.04,-61.5 2.13,-16.3 5.56,-29.19 9.48,-39.06 4.24,-9.45 9.86,-16.33 16.76,-20.64 6.42,-4.29 14.58,-6.44 23.62,-6.44l688.63 0c12.03,0 21.93,1.28 30.53,3.83 8.17,2.61 15.46,6.92 20.63,13.8 5.55,6.86 9.86,15.86 12.89,27.9 3,11.64 4.31,26.23 4.31,44.31l0 61.88c0,16.77 -0.88,31.82 -2.61,44.7 -1.7,12.87 -4.26,25.36 -7.73,37.41 -3,11.57 -8.18,23.62 -14.21,35.25 -6.42,11.57 -13.71,24.47 -22.31,37.8l-419.97 647.35 444.89 0c7.3,0 14.59,1.76 21.51,5.2 6.42,3.43 12.01,9.47 16.75,18.9 4.69,9.03 8.16,21.91 10.73,38.69 2.62,16.34 3.87,36.95 3.87,62.33zm1368.21 -490.89c0,99.72 -10.72,189.96 -32.21,269.96 -21.08,79.96 -52.43,148.27 -93.69,204.6 -40.86,56.28 -92.03,99.28 -153.05,129.78 -61.45,30.14 -131.56,45.19 -210.2,45.19 -32.66,0 -62.76,-3.02 -89.87,-9.46 -27.48,-6.5 -53.71,-15.93 -79.52,-28.82 -25.36,-13.33 -50.71,-29.22 -76.08,-48.6 -24.93,-19.33 -51.12,-42.09 -77.79,-67.9l0 528.74c0,8.6 -2.55,15.89 -7.74,22.75 -4.72,6.47 -13.32,12.5 -25.79,16.79 -12.02,4.75 -28.36,8.15 -48.17,10.77 -20.2,2.56 -45.99,3.86 -76.92,3.86 -30.96,0 -56.76,-1.3 -76.96,-3.86 -19.74,-2.62 -36.08,-6.02 -48.1,-10.77 -12.46,-4.29 -21.08,-10.33 -25.81,-16.79 -5.17,-6.86 -7.78,-14.15 -7.78,-22.75l0 -1569.41c0,-8.19 2.17,-15.47 6.48,-21.92 3.86,-6.45 11.16,-11.61 21.92,-15.95 10.3,-3.83 24.07,-7.29 41.7,-9.43 17.2,-2.16 38.69,-2.98 64.49,-2.98 25.37,0 46.38,0.82 63.58,2.98 17.18,2.14 31.4,5.6 41.68,9.43 10.35,4.35 17.64,9.51 21.94,15.95 4.29,6.45 6.47,13.73 6.47,22.37l0 132.34c32.67,-33.51 64.44,-63.19 96.29,-88.51 31.35,-25.81 63.13,-46.87 95.84,-64.06 33.1,-17.16 66.62,-30.08 101.46,-38.7 34.78,-8.15 71.79,-12.43 111.32,-12.43 82.07,0 152.17,16.33 210.19,48.54 57.59,32.28 104.89,76.51 141.41,132.85 36.57,55.88 63.19,121.65 80.01,196.44 16.71,74.35 24.87,154.31 24.87,239.01zm-330.1 21.91c0,-47.72 -3.43,-93.73 -10.73,-137.54 -6.92,-43.85 -19.38,-83 -36.58,-117.35 -17.18,-34.42 -39.51,-61.93 -67.43,-82.11 -28.41,-20.63 -63.18,-30.96 -104.89,-30.96 -21.11,0 -41.69,2.98 -62.36,9.45 -20.63,6.47 -41.25,16.37 -62.76,30.95 -21.49,14.18 -43.43,32.67 -65.74,55.05 -22.82,22.78 -46.87,50.73 -71.8,84.24l0 370.13c44.24,55.82 86.81,98.83 126.82,129.35 40.39,30.51 82.09,45.53 125.52,45.53 41.25,0 76.09,-10.26 104.88,-31.35 28.8,-21.08 52.86,-48.56 70.93,-82.12 18.5,-33.96 32.22,-72.22 40.82,-115.17 9.03,-42.53 13.33,-85.53 13.33,-128.11zm901.82 556.7c0,8.12 -2.56,15.46 -7.73,21.91 -4.74,6.45 -13.28,11.59 -25.75,15.88 -12.01,3.88 -28.41,7.31 -48.17,9.45 -20.19,2.19 -45.99,3.04 -76.96,3.04 -30.97,0 -56.72,-0.85 -76.91,-3.04 -19.81,-2.14 -36.13,-5.57 -48.17,-9.45 -12.46,-4.3 -21.06,-9.44 -25.8,-15.88 -5.17,-6.45 -7.73,-13.79 -7.73,-21.91l0 -1121.95c0,-8.18 2.56,-15.46 7.73,-21.92 4.74,-6.5 13.33,-12.03 25.8,-16.37 12.03,-4.69 28.36,-8.13 48.17,-10.74 20.19,-2.57 45.94,-3.83 76.91,-3.83 30.97,0 56.77,1.26 76.96,3.83 19.76,2.61 36.15,6.05 48.17,10.74 12.46,4.34 21.01,9.88 25.75,16.37 5.17,6.46 7.73,13.74 7.73,21.92l0 1121.95zm25.8 -1506.25c0,64.03 -12.89,107.88 -39.08,132.39 -26.23,24.52 -74.39,36.56 -145.32,36.56 -71.36,0 -119.91,-11.65 -144.39,-35.27 -25,-23.67 -37.4,-66.22 -37.4,-127.26 0,-64.01 12.89,-108.32 38.65,-133.24 25.36,-24.53 73.96,-36.96 145.7,-36.96 70.54,0 118.71,12.03 144.01,36.11 25.43,23.63 37.83,66.19 37.83,127.66zm1327.39 911.71c0,38.71 -8.59,67.08 -25.79,85.56 -17.2,18.45 -40.83,27.95 -71.36,27.95l-684.32 0c0,47.72 5.61,90.71 17.19,129.82 11.22,38.69 29.24,71.75 53.72,98.83 24.94,27.11 56.78,47.75 95.91,61.94 39.07,14.18 85.5,21.46 140.1,21.46 55.46,0 104.01,-3.84 146.14,-12.04 41.69,-8.12 78.21,-16.72 108.74,-26.62 30.54,-9.89 55.9,-18.48 76.09,-26.66 20.25,-8.19 36.58,-12.03 48.99,-12.03 7.8,0 14.21,1.3 18.95,4.29 5.17,3 9.47,8.2 12.89,15.92 2.99,7.3 5.6,18.05 6.85,31.77 1.31,13.79 1.75,31.44 1.75,52.08 0,18.46 -0.44,34.36 -1.3,47.25 -0.82,12.91 -2.13,24.1 -3.81,33.09 -1.81,9.49 -3.92,17.23 -7.37,23.22 -3.42,6.45 -7.73,12.47 -13.32,18.48 -5.6,5.59 -20.2,13.77 -44.68,24.07 -24.5,10.35 -55.47,20.24 -93.3,30.12 -37.82,9.89 -80.83,18.48 -129.37,25.78 -48.61,7.28 -100.6,11.2 -156.05,11.2 -100.15,0 -187.4,-12.49 -262.61,-37.85 -74.85,-24.95 -137.59,-63.21 -188.28,-114.33 -50.34,-51.13 -87.72,-116.08 -112.65,-193.89 -24.5,-78.21 -36.95,-169.81 -36.95,-274.68 0,-99.69 12.89,-189.53 39.06,-269.93 25.81,-79.97 63.69,-147.9 113.54,-203.74 49.43,-55.89 109.57,-98.44 180.49,-127.68 71.4,-29.69 151.36,-44.26 240.35,-44.26 94.11,0 174.5,13.72 241.12,41.68 67.05,27.5 121.65,66.19 164.65,115.18 42.55,49 74.35,107.48 94.54,174.56 20.25,67.02 30.09,140.15 30.09,219.19l0 50.3zm-306.92 -90.24c2.63,-89 -15.45,-159.08 -53.72,-209.76 -38.26,-51.2 -97.15,-76.52 -177.11,-76.52 -40.39,0 -75.66,7.74 -105.32,22.79 -30.1,15.03 -55.04,35.26 -74.78,61.02 -19.76,25.76 -34.84,55.9 -45.13,90.68 -10.79,35.29 -16.77,72.24 -18.5,111.78l474.55 0zm1417.27 505.52c0,21.92 -0.44,39.96 -1.75,54.99 -1.25,14.64 -2.99,27.11 -5.11,37.39 -2.19,9.91 -4.74,18.1 -7.79,24.54 -3,6.45 -9.42,14.17 -19.32,24.06 -10.29,9.45 -27.54,21.48 -51.61,35.26 -24.48,13.76 -51.98,26.2 -83.37,37.38 -30.92,10.75 -64.44,19.75 -101.03,26.22 -36.51,6.88 -74.35,10.35 -113.04,10.35 -86.38,0 -162.91,-13.35 -229.53,-40.42 -67.05,-26.67 -122.95,-66.63 -168.51,-119.07 -45.11,-52.43 -79.52,-116.92 -102.32,-192.57 -23.19,-75.65 -34.84,-162.06 -34.84,-259.66 0,-112.62 14.2,-210.21 42.13,-291.86 28.4,-82.12 67.48,-150.03 117.78,-203.78 50.34,-53.68 110.05,-93.68 178.84,-119.89 68.8,-26.23 144.41,-39.11 226.97,-39.11 33.53,0 66.18,2.99 98.85,9.03 32.28,5.55 62.36,13.74 90.72,23.65 27.92,10.29 53.29,21.44 75.23,33.95 22.31,12.87 38.26,23.62 47.24,33.11 9.48,9 15.95,16.74 19.81,23.17 3.43,6.45 6.42,14.66 8.6,24.53 2.13,10.33 3.87,22.78 5.18,37.4 1.25,15.04 1.68,32.68 1.68,53.74 0,49 -3.87,83.35 -12.46,103.13 -8.59,19.77 -19.31,29.67 -32.66,29.67 -14.19,0 -29.66,-5.98 -45.55,-17.63 -15.95,-11.6 -34.84,-24.89 -56.78,-39.1 -21.44,-14.17 -47.67,-27.52 -77.78,-39.09 -30.1,-11.61 -66.23,-17.62 -108.3,-17.62 -82.58,0 -145.32,31.81 -189.14,95 -43.44,63.61 -65.37,156.45 -65.37,278.96 0,60.18 5.61,113.46 16.39,159.93 11.16,45.97 27.04,84.62 48.53,115.6 21.51,30.97 48.13,54.59 80.41,70.08 32.66,15.49 70.04,23.22 113.04,23.22 43.38,0 81.22,-6.44 112.61,-19.76 31.35,-12.91 58.89,-27.55 82.52,-43.42 23.25,-15.93 42.99,-30.55 59.33,-43.46 15.89,-13.32 29.22,-19.78 39.94,-19.78 7.78,0 13.76,2.15 18.94,6.46 5.18,4.33 9.03,12.02 12.02,23.22 2.99,11.63 5.17,26.21 6.87,43.86 1.74,17.61 2.61,40.39 2.61,68.36zm1017.43 91.55c0,24.49 -1.25,45.14 -3.81,62.76 -2.61,17.19 -6.05,30.92 -9.91,40.81 -4.31,10.35 -9.91,17.2 -16.34,21.09 -6.91,3.84 -14.64,5.58 -22.8,5.58l-735.5 0c-22.35,0 -39.94,-7.73 -51.98,-22.78 -12.44,-15.07 -18.49,-39.99 -18.49,-74.37l0 -58.48c0,-15.02 0.43,-28.78 1.74,-40.84 1.31,-12.03 3.86,-24.06 7.73,-35.21 3.86,-11.67 9.03,-23.22 15.01,-34.84 6.49,-12.03 14.64,-24.96 24.94,-39.14l422.58 -648.68 -400.65 0c-15.88,0 -28.79,-10.26 -38.69,-30.5 -9.91,-20.15 -14.59,-52.43 -14.59,-97.14 0,-24.52 0.88,-44.68 3,-61.5 2.17,-16.3 5.55,-29.19 9.47,-39.06 4.25,-9.45 9.91,-16.33 16.77,-20.64 6.42,-4.29 14.64,-6.44 23.62,-6.44l688.62 0c12.03,0 21.94,1.28 30.54,3.83 8.16,2.61 15.46,6.92 20.63,13.8 5.61,6.86 9.91,15.86 12.89,27.9 2.99,11.64 4.31,26.23 4.31,44.31l0 61.88c0,16.77 -0.87,31.82 -2.61,44.7 -1.7,12.87 -4.25,25.36 -7.69,37.41 -3.04,11.57 -8.21,23.62 -14.19,35.25 -6.48,11.57 -13.77,24.47 -22.37,37.8l-419.98 647.35 444.9 0c7.3,0 14.64,1.76 21.5,5.2 6.49,3.43 12.02,9.47 16.76,18.9 4.74,9.03 8.18,21.91 10.79,38.69 2.56,16.34 3.81,36.95 3.81,62.33zm1227.24 -506.83c0,38.71 -8.6,67.08 -25.75,85.56 -17.25,18.45 -40.87,27.95 -71.4,27.95l-684.33 0c0,47.72 5.62,90.71 17.2,129.82 11.22,38.69 29.22,71.75 53.72,98.83 24.98,27.11 56.77,47.75 95.91,61.94 39.07,14.18 85.5,21.46 140.09,21.46 55.46,0 104.08,-3.84 146.15,-12.04 41.69,-8.12 78.26,-16.72 108.74,-26.62 30.53,-9.89 55.9,-18.48 76.09,-26.66 20.24,-8.19 36.58,-12.03 49.04,-12.03 7.73,0 14.16,1.3 18.89,4.29 5.17,3 9.47,8.2 12.9,15.92 2.99,7.3 5.6,18.05 6.91,31.77 1.25,13.79 1.68,31.44 1.68,52.08 0,18.46 -0.43,34.36 -1.31,47.25 -0.82,12.91 -2.11,24.1 -3.81,33.09 -1.74,9.49 -3.92,17.23 -7.35,23.22 -3.42,6.45 -7.73,12.47 -13.32,18.48 -5.56,5.59 -20.2,13.77 -44.68,24.07 -24.5,10.35 -55.47,20.24 -93.3,30.12 -37.82,9.89 -80.83,18.48 -129.39,25.78 -48.53,7.28 -100.58,11.2 -156.04,11.2 -100.14,0 -187.39,-12.49 -262.61,-37.85 -74.84,-24.95 -137.6,-63.21 -188.27,-114.33 -50.34,-51.13 -87.74,-116.08 -112.66,-193.89 -24.5,-78.21 -36.96,-169.81 -36.96,-274.68 0,-99.69 12.9,-189.53 39.08,-269.93 25.86,-79.97 63.68,-147.9 113.54,-203.74 49.41,-55.89 109.56,-98.44 180.47,-127.68 71.42,-29.69 151.38,-44.26 240.37,-44.26 94.09,0 174.5,13.72 241.11,41.68 67.06,27.5 121.66,66.19 164.66,115.18 42.55,49 74.33,107.48 94.53,174.56 20.25,67.02 30.1,140.15 30.1,219.19l0 50.3zm-306.92 -90.24c2.61,-89 -15.45,-159.08 -53.72,-209.76 -38.26,-51.2 -97.16,-76.52 -177.11,-76.52 -40.39,0 -75.66,7.74 -105.34,22.79 -30.08,15.03 -54.97,35.26 -74.78,61.02 -19.75,25.76 -34.84,55.9 -45.11,90.68 -10.79,35.29 -16.77,72.24 -18.51,111.78l474.56 0zm1641.68 684.78c0,8.12 -2.63,15.46 -7.8,21.91 -4.68,6.45 -13.26,11.59 -24.92,15.88 -12.03,3.88 -28.36,7.31 -48.98,9.45 -20.63,2.19 -45.99,3.04 -76.1,3.04 -31.35,0 -57.15,-0.85 -77.78,-3.04 -20.62,-2.14 -36.96,-5.57 -48.98,-9.45 -11.66,-4.3 -20.26,-9.44 -25,-15.88 -5.17,-6.45 -7.73,-13.79 -7.73,-21.91l0 -640.92c0,-54.62 -3.86,-97.6 -12.01,-128.57 -7.74,-31.37 -19.33,-58.04 -34.41,-79.97 -15.01,-22.32 -34.78,-39.49 -58.47,-51.98 -24.05,-12.03 -51.53,-18.08 -83.37,-18.08 -40.39,0 -80.83,14.63 -122.09,44.3 -40.82,29.21 -83.81,72.22 -128.07,128.12l0 747.1c0,8.12 -2.61,15.46 -7.78,21.91 -4.74,6.45 -13.28,11.59 -25.75,15.88 -12.03,3.88 -28.41,7.31 -48.17,9.45 -20.19,2.19 -45.99,3.04 -76.96,3.04 -30.98,0 -56.72,-0.85 -76.91,-3.04 -19.81,-2.14 -36.15,-5.57 -48.17,-9.45 -12.46,-4.3 -21.06,-9.44 -25.8,-15.88 -5.17,-6.45 -7.73,-13.79 -7.73,-21.91l0 -1124.53c0,-8.19 2.17,-15.47 6.48,-21.92 3.86,-6.45 11.59,-11.61 22.31,-15.95 11.22,-3.83 24.93,-7.29 42.12,-9.43 17.2,-2.16 39.14,-2.98 64.89,-2.98 27.09,0 49.03,0.82 66.66,2.98 17.63,2.14 31.36,5.6 41.26,9.43 9.47,4.35 16.32,9.51 20.62,15.95 4.31,6.45 6.48,13.73 6.48,21.92l0 129.81c61.88,-67.04 125.09,-116.94 189.53,-150.43 64.05,-33.58 131.11,-50.3 200.79,-50.3 76.47,0 140.97,12.43 193.43,37.79 52.43,24.94 94.54,59.34 127.21,102.73 32.28,43.01 55.47,93.74 69.66,151.74 14.16,58.08 21.51,127.71 21.51,208.95l0 694.24zm628.44 0c0,8.12 -2.63,15.46 -7.74,21.91 -4.74,6.45 -13.34,11.59 -25.81,15.88 -12.01,3.88 -28.36,7.31 -48.17,9.45 -20.18,2.19 -45.99,3.04 -76.9,3.04 -30.98,0 -56.78,-0.85 -76.97,-3.04 -19.75,-2.14 -36.08,-5.57 -48.11,-9.45 -12.46,-4.3 -21.06,-9.44 -25.8,-15.88 -5.18,-6.45 -7.79,-13.79 -7.79,-21.91l0 -1121.95c0,-8.18 2.61,-15.46 7.79,-21.92 4.74,-6.5 13.33,-12.03 25.8,-16.37 12.02,-4.69 28.36,-8.13 48.11,-10.74 20.19,-2.57 45.99,-3.83 76.97,-3.83 30.91,0 56.72,1.26 76.9,3.83 19.81,2.61 36.15,6.05 48.17,10.74 12.46,4.34 21.07,9.88 25.81,16.37 5.11,6.46 7.74,13.74 7.74,21.92l0 1121.95zm25.79 -1506.25c0,64.03 -12.89,107.88 -39.14,132.39 -26.18,24.52 -74.35,36.56 -145.26,36.56 -71.35,0 -119.97,-11.65 -144.45,-35.27 -24.94,-23.67 -37.4,-66.22 -37.4,-127.26 0,-64.01 12.89,-108.32 38.71,-133.24 25.35,-24.53 73.9,-36.96 145.69,-36.96 70.49,0 118.66,12.03 144.03,36.11 25.36,23.63 37.82,66.19 37.82,127.66zm1247.44 1510.07c0,11.64 -4.31,20.64 -12.52,27.52 -8.54,6.9 -21.88,11.59 -39.94,14.63 -18.07,3.01 -44.68,4.3 -80.39,4.3 -37.83,0 -65.32,-1.29 -82.53,-4.3 -17.19,-3.05 -29.66,-7.74 -36.52,-14.63 -7.34,-6.88 -10.77,-15.88 -10.77,-27.52l0 -89.39c-46.42,49.43 -98.85,87.7 -158.17,115.2 -58.9,27.48 -124.7,41.28 -196.87,41.28 -59.32,0 -114.36,-7.76 -164.21,-23.23 -49.86,-15.5 -92.86,-38.68 -129.38,-69.23 -36.57,-30.92 -64.92,-68.78 -85.12,-113.92 -20.19,-45.56 -30.1,-98.39 -30.1,-158.56 0,-65.78 12.89,-122.53 38.26,-170.67 25.79,-48.58 64.05,-88.14 114.78,-119.96 50.73,-31.35 113.48,-54.6 189.14,-69.59 75.22,-15.06 162.91,-22.81 262.63,-22.81l109.61 0 0 -67.91c0,-35.26 -3.44,-66.2 -10.73,-92.85 -6.91,-26.21 -18.94,-48.61 -35.27,-66.22 -16.34,-17.63 -37.83,-30.52 -65.37,-39.1 -27.06,-8.15 -61.01,-12.48 -100.97,-12.48 -52.9,0 -100.21,6.07 -141.46,17.65 -41.68,11.62 -78.21,24.96 -110,39.14 -31.83,14.15 -58.51,27.46 -80,39.09 -21.45,11.59 -38.65,17.65 -51.98,17.65 -9.48,0 -17.63,-3.03 -24.5,-8.66 -7.3,-5.99 -13.33,-14.6 -17.64,-25.32 -4.73,-10.75 -8.16,-24.52 -10.72,-40.41 -2.61,-15.93 -3.92,-33.54 -3.92,-52.44 0,-26.21 2.17,-46.86 6.48,-61.94 3.86,-15.01 12.01,-28.36 23.62,-40.79 12.03,-12.03 32.28,-25.37 61.88,-40.01 29.22,-14.6 63.62,-28.34 103.21,-40.82 39.55,-12.91 82.51,-23.2 128.94,-30.93 46.85,-8.2 94.97,-12.03 144.45,-12.03 88.11,0 163.34,8.61 226.09,25.76 62.31,17.2 113.92,43.87 153.87,79.57 40.44,35.64 70.05,81.67 88.56,137.93 18.5,55.89 27.54,122.98 27.54,199.93l0 756.09zm-312.09 -482.3l-120.79 0c-51.16,0 -94.59,3.89 -130.67,11.19 -36.09,7.75 -65.37,18.93 -88.11,34.41 -22.81,15.04 -39.14,33.07 -49.42,54.6 -10.79,21.49 -15.95,45.98 -15.95,73.46 0,47.27 15.07,84.25 44.74,110.93 29.66,27.06 70.91,40.4 123.77,40.4 44.31,0 85.11,-11.19 122.52,-33.99 37.39,-22.74 75.21,-55.87 113.92,-99.73l0 -191.27z"/>
   <path class="fil0" d="M5049.74 5722.93c-60.23,0 -118.89,-30.35 -152.64,-85.34 -51.61,-84.18 -25.22,-194.39 58.99,-246l1015.66 -622.87 0 -3860.63 -2416.38 0c-98.76,0 -178.92,-80.03 -178.92,-178.78l0 -337.51 -2630.8 461.5 0 853.38c0,98.74 -80.03,178.78 -178.82,178.78 -98.78,0 -178.8,-80.05 -178.8,-178.78l0 -1003.67c0,-86.77 62.33,-161.09 147.87,-176.06l2988.53 -524.2c52.12,-9.26 105.46,5.21 145.98,39.18 40.38,33.96 63.77,84.14 63.77,136.88l0 371.69 2416.39 0c98.72,0 178.79,80 178.79,178.79l0 4139.59c0,62.15 -32.34,119.83 -85.41,152.31l-1100.95 675.34c-29.08,17.85 -61.35,26.4 -93.25,26.4z"/>
   <path class="fil1" d="M3489.8 2287.06c-47.29,55.71 -64.95,320.56 -27.28,441.44 25.23,81.05 114.28,128.88 196.98,103.36 82.78,-25.86 129.42,-114.48 103.81,-197.35 -37.66,-120.36 -202.85,-328.25 -273.5,-347.45zm-1794.91 1316.82c-20.11,0 -40.55,-5.31 -59.06,-16.41l-856.15 -511.62c-54.66,-32.62 -72.42,-103.46 -39.81,-158.13 32.72,-54.66 103.45,-72.41 158.1,-39.82l856.16 511.73c54.66,32.7 72.41,103.33 39.79,158.02 -21.6,36.16 -59.89,56.24 -99.04,56.24zm-723.47 1210.07c-20.2,0 -40.56,-5.4 -59.07,-16.47l-856.21 -511.9c-54.66,-32.68 -72.43,-103.54 -39.81,-158.08 32.69,-54.77 103.54,-72.45 158.09,-39.71l856.25 511.87c54.64,32.73 72.39,103.47 39.79,158.02 -21.57,36.14 -59.91,56.28 -99.05,56.28zm118.08 -1162.37c-20.17,0 -40.57,-5.32 -59.05,-16.32l-431.19 -258.08c-54.62,-32.61 -72.39,-103.49 -39.7,-158 32.81,-54.76 103.64,-72.43 158.13,-39.82l431.06 258.09c54.66,32.71 72.42,103.46 39.8,158.03 -21.69,36.13 -59.91,56.11 -99.06,56.11zm-368.19 615.26c-20.1,0 -40.56,-5.34 -59.1,-16.35l-430.96 -257.52c-54.58,-32.66 -72.41,-103.32 -39.79,-158 32.62,-54.55 103.54,-72.36 158.09,-39.81l430.98 257.44c54.58,32.68 72.42,103.37 39.77,158.07 -21.55,36.1 -59.85,56.18 -99,56.18zm-71.47 -439.38c-20.16,0 -40.65,-5.33 -59.14,-16.43l-184.57 -110.56c-54.56,-32.68 -72.31,-103.56 -39.63,-158.08 32.63,-54.75 103.47,-72.6 158.12,-39.72l184.56 110.56c54.59,32.76 72.31,103.4 39.63,158.06 -21.6,36.1 -59.8,56.18 -98.98,56.18zm2947.69 1967.55c-38.48,0 -76.18,-19.25 -98.04,-54.33 -2.87,-4.78 -269.29,-425.68 -685.13,-629.72l0.18 0.68c25.2,100.11 9.9,204.4 -43.27,293.25 -53.25,89.02 -137.95,151.9 -238.56,177 -60.38,15.22 -133.06,18.44 -183.55,18.44 -111.93,0 -481.77,-17.04 -537.45,-236.51 -10.46,-41.41 -13,-107.48 34.83,-187.33 1.87,-3.13 3.81,-6.27 5.79,-9.34 -3.17,0.85 -6.38,1.67 -9.6,2.49 -60.09,15.02 -133.07,18.29 -183.6,18.29 -112.04,0 -481.93,-17.09 -536.85,-236.61 -10.37,-41.04 -12.89,-107.01 34.86,-186.88 67.48,-113.18 219.38,-222.86 351.55,-289.54 -46.2,19.13 -96.27,29.47 -147.54,29.47 -69.98,0 -138.95,-19.14 -199.33,-55.4 -128.92,-76.9 -492.35,-434.63 -355.73,-663.82 48.4,-80.67 142.8,-121.3 280.63,-121.3 168.55,0 376.87,61.96 473.1,119.44 83.95,50.62 142,128.04 169.79,214.73 11.67,-192.87 70.24,-412.98 234.12,-454.14 16.25,-4.26 33.53,-6.33 51.01,-6.33 239.42,0 451.41,412.78 482.81,537.99 0.8,3.01 1.48,6.05 2.18,9.06 1.8,-3.18 3.64,-6.42 5.49,-9.52 47.75,-79.71 107.16,-108.78 148.6,-119.14 16.04,-4.03 33.25,-6.17 50.62,-6.17 242.4,0 449.86,408.55 482.65,538.26 25.41,100.14 10.08,204.35 -42.89,293.27 -40.45,67.86 -99.22,120.56 -169.25,153.03 440.9,240.42 707.52,663.9 720.45,684.59 33.53,54.11 16.9,125.04 -37.11,158.6 -18.96,11.86 -39.99,17.48 -60.72,17.48zm-887.32 -1613.08c-50.45,52.69 -82.87,316.21 -51.96,438.73 17.66,70.32 80.35,119.4 152.7,119.4 12.88,0 25.9,-1.68 38.61,-4.82 40.71,-10.28 75.02,-35.83 96.58,-72.14 21.53,-35.84 27.68,-78.1 17.41,-118.43 -31.03,-123.03 -184.19,-340.08 -253.34,-362.74zm-203.34 641.64c-33.39,-42.16 -58.4,-91.81 -72.13,-146.73 -15.64,-61.97 -22.32,-156.96 -16.37,-257.27 -50.56,60.54 -119.8,106.28 -201.78,127.12 -31.34,7.81 -63.3,11.88 -95.06,11.88 -23.31,0 -46.22,-2.09 -68.5,-6.07 33.3,42.07 58.28,91.55 72.07,146.23 20.12,80.42 14.44,162.88 -15.6,238.02 85.6,-52.67 172.4,-91.74 234.53,-107.36 30.88,-7.84 62.99,-11.78 95.04,-11.78 23.07,0 45.73,2.05 67.81,5.96zm-486.27 -1053.88c-50.17,53 -82.51,316.52 -51.87,439 17.66,70.18 80.48,119.34 152.79,119.43 12.9,0 25.82,-1.67 38.49,-4.96 83.9,-21.38 135.23,-107.3 113.99,-191.25 -30.83,-122.72 -183.97,-339.3 -253.4,-362.23zm-203.22 641.86c-33.4,-42.18 -58.43,-91.85 -72.25,-146.78 -3.43,-13.71 -6.59,-30.61 -9.23,-50.09 -9.03,34.76 -23.06,68.73 -42.4,101.04 -35.56,59.72 -86.51,107.84 -146.07,140.6 39.43,-17.93 76.03,-31.35 106.63,-39.02 31.1,-7.88 63.16,-11.8 95.11,-11.8 23.22,0 46,2.03 68.21,6.05zm220.26 894.69c29.8,25.29 146.44,63.64 311.52,63.64 51.32,0 98.9,-4.3 127.29,-11.5 41.02,-10.32 75.43,-35.82 96.99,-71.82 21.49,-36.02 27.78,-78.28 17.49,-118.93 -20.64,-83.25 -106.9,-135.97 -190.45,-114.61 -122.88,30.71 -339.22,183.42 -362.84,253.21zm-689.36 -412.13c29.72,25.17 146.06,63.26 310.84,63.26 51.47,0 99.21,-4.29 127.83,-11.49 41.11,-10.17 75.31,-35.44 96.8,-71.18 21.77,-36.18 28.1,-78.68 17.83,-119.82 -20.81,-82.4 -107.28,-135.01 -191.1,-114.09 -122.5,30.86 -338.64,183.72 -362.2,253.31zm-342.04 -988.93c3.17,73.78 165.78,281.49 273.98,346.06 73.51,44.01 172.4,18.2 215.38,-53.77 44.57,-74.54 20.18,-171.57 -54.3,-216.39 -60.46,-36.05 -224.92,-86.72 -354.6,-86.72 -43.87,0 -69.06,6.24 -80.47,10.82zm3216.04 -1449.79c-49.05,0 -94.54,-31.72 -109.95,-81.03l-297.15 -952.05c-18.98,-60.77 14.85,-125.36 75.68,-144.35 60.53,-19.13 125.39,14.88 144.38,75.63l297.13 952.05c18.96,60.83 -14.85,125.47 -75.68,144.43 -11.4,3.53 -22.99,5.32 -34.41,5.32zm-1345.33 419.56c-49.08,0 -94.58,-31.6 -110,-81l-297.17 -952.51c-18.96,-60.74 15,-125.43 75.74,-144.35 60.52,-19.06 125.38,14.91 144.34,75.77l297.16 952.37c18.98,60.81 -14.96,125.39 -75.71,144.4 -11.39,3.65 -22.99,5.32 -34.36,5.32zm862.44 -787.95c-49.08,0 -94.58,-31.63 -109.99,-81.07l-149.5 -479.25c-18.88,-60.74 14.91,-125.4 75.77,-144.35 60.63,-19.2 125.33,14.93 144.37,75.78l149.41 479.21c18.97,60.76 -14.93,125.43 -75.68,144.4 -11.42,3.49 -22.99,5.28 -34.38,5.28zm-685.22 213.39c-49.08,0 -94.67,-31.65 -110.01,-80.99l-149.3 -479.01c-18.96,-60.84 14.95,-125.36 75.77,-144.36 60.75,-18.96 125.41,14.93 144.37,75.66l149.24 479.04c18.96,60.82 -14.95,125.48 -75.68,144.37 -11.5,3.62 -23,5.29 -34.39,5.29zm239.93 -375.27c-49.05,0 -94.64,-31.64 -109.96,-81l-63.99 -205.29c-18.9,-60.86 15.02,-125.4 75.77,-144.39 60.55,-19.07 125.4,14.93 144.36,75.83l63.9 205.27c18.99,60.85 -14.91,125.39 -75.78,144.35 -11.39,3.57 -22.88,5.23 -34.3,5.23zm964.64 3699.13c-6.63,0 -13.44,-0.59 -20.19,-1.88 -62.7,-10.93 -104.46,-70.73 -93.53,-133.32 1.01,-5.83 81.21,-480.06 -55.3,-941.19 -67.76,126.9 -198.97,205.45 -342.96,205.45 -62.14,0 -124.23,-15.11 -179.51,-44.12 -133.45,-70.08 -515.82,-407.59 -392.11,-643.53 47.75,-91.72 154,-138.2 315.58,-138.2 146.45,0 334.26,40.69 436.86,94.53 34,17.83 64.69,40.22 91.41,66.4 12.98,-5.74 26.6,-8.94 40.15,-9.68 6.8,-37.28 19.23,-74.18 37.64,-109.52 65.38,-124.6 328.64,-416.15 541.86,-416.15 37.1,0 71.57,8.21 102.42,24.53 37.27,19.5 88.02,61.54 115.68,150.11 55.41,177 -6.25,474.86 -73.07,602.22 -67.19,127.83 -198.95,207.25 -343.71,207.25 -40.12,0 -80.23,-6.36 -118.47,-18.57 138.07,499.81 55.04,985.21 50.51,1010.58 -9.91,55.81 -58.49,95.1 -113.26,95.1zm374 -1840.23c-82.87,9.74 -277.72,189.07 -331.72,292.22 -40.08,76.6 -10.36,172.29 66.45,212.59 74.27,38.64 173.04,8.05 212.12,-66.08 58.56,-111.86 89.24,-374.79 53.15,-438.73zm-239.14 -843.89c-83.12,9.69 -277.6,189.03 -331.43,292 -19.63,37.37 -23.44,79.93 -10.92,120.1 12.5,40.03 39.88,72.81 77.07,92.29 76.19,40.02 173.07,8.3 212.31,-66.32 58.42,-111.3 88.88,-373.9 52.97,-438.07zm-192.47 753.23c-62.31,0 -124.56,-15.5 -179.95,-44.77 -49.73,-25.95 -92.34,-61.7 -125.86,-104.78 -2.88,53.56 -16.94,107.36 -43.26,157.86 -67.62,128.4 -199.25,207.79 -343.41,207.79 -62.7,0 -125.31,-15.59 -181.1,-45.08 -125.87,-65.46 -345.44,-274.78 -401.34,-452.61 -27.92,-88.93 -10.17,-152.66 9.63,-190.28 48.22,-91.62 154.45,-137.98 315.86,-137.98 146.42,0 334.06,40.59 436.58,94.3 50.52,26.62 92.78,62.91 125.7,105.44 3.11,-54.55 17.85,-108.28 44.04,-158.12 64.85,-124.19 327.6,-416.1 541.6,-416.1 37,0 71.49,8.19 102.32,24.48 37.1,19.33 87.83,61.3 115.5,149.79 55.51,177.09 -5.9,474.99 -72.61,602.07 -67.37,128.23 -199.03,208 -343.69,208zm-819.47 480.68c7.21,73.55 181.19,272.47 292.58,330.99 74.78,39 173.33,7.93 212.7,-66.71 19.33,-37.04 23.15,-79.53 10.65,-119.71 -12.62,-40.21 -39.93,-72.97 -77.12,-92.4 -54.39,-28.63 -199.28,-68.17 -329.75,-68.17 -62.13,0 -95.6,9.67 -109.05,16zm-239.4 -843.9c7.19,73.81 181,272.08 292.39,330.12 78.02,41.14 173.83,9.15 213.25,-65.69 39.88,-76.42 9.99,-172.25 -66.91,-212.66 -54,-28.45 -198.77,-67.82 -329.29,-67.82 -62.25,0 -95.78,9.7 -109.43,16.05zm470.6 -260.62c-170.74,0 -319.58,-109.53 -370.39,-272.38 -28.79,-92.34 -38.51,-244.09 -24.24,-377.74 26.65,-249.49 124.77,-330.46 202.42,-354.68 19.9,-6.16 40.93,-9.36 62.4,-9.36 238.24,0 461.91,387.62 500.32,510.59 63.25,204.24 -51.3,422.12 -255.2,486.05 -37.75,11.71 -76.44,17.51 -115.31,17.51z"/>
  </g>
 </g>
</svg>
