<svg width="126" height="30" viewBox="0 0 126 30" fill="none" xmlns="http://www.w3.org/2000/svg">
<path d="M29.0135 0H3.23926L8.66782 5.39463H23.7218V23.6185H8.66782L3.23926 29.0132H29.0135V0Z" fill="#39677E"/>
<rect x="9.35156" y="9.11182" width="10.5834" height="10.5173" fill="#3F3F48"/>
<path d="M5.65665 8.84005L0 3.21875V26.2479L5.65665 20.6266V8.84005Z" fill="#3F3F48"/>
<path d="M47.1643 23.0213C47.4203 23.329 48.8284 24.9478 50.2886 26.6234L52.9387 29.6717H53.2136H53.4886V24.9052V20.1387H52.8249H52.1612V23.5136V26.8885L50.9807 25.5158C50.3312 24.7632 49.0085 23.2438 48.0414 22.1409L46.2825 20.1387H45.78H45.2775V24.8105V29.4824H45.9744H46.6713L46.6855 25.975L46.6997 22.4675L47.1643 23.0213Z" fill="#3F3F48"/>
<path d="M57.3477 29.0848C57.7649 29.3309 58.348 29.5297 58.8789 29.6054V29.6102C59.7133 29.7238 60.7468 29.5723 61.3442 29.2504C61.7519 29.028 62.2497 28.4931 62.4583 28.0482C62.6147 27.7168 62.629 27.6222 62.629 26.898C62.629 26.1501 62.6195 26.0886 62.4441 25.7288C62.226 25.2791 61.6997 24.7395 61.1972 24.4461C61.0028 24.3277 60.5193 24.1005 60.1211 23.9349C59.2393 23.5657 58.8552 23.3101 58.6466 22.9551C58.2721 22.3161 58.604 21.5256 59.353 21.2653C59.9362 21.0617 61.0266 21.2511 61.5812 21.6534L61.8372 21.838L61.8989 21.6013C61.9321 21.4688 61.9937 21.2369 62.0316 21.0807C62.0695 20.9245 62.1169 20.7493 62.1312 20.6925C62.1975 20.4606 61.1403 20.0346 60.3296 19.9683C59.0164 19.8595 57.9071 20.3991 57.3761 21.4073C57.2102 21.7197 57.196 21.8001 57.196 22.4391C57.196 23.0781 57.2102 23.1633 57.3808 23.5136C57.7411 24.2473 58.4143 24.7537 59.6944 25.2507C60.3486 25.5064 60.8748 25.8424 61.0645 26.1217C61.4105 26.6423 61.3726 27.4092 60.9791 27.8446C60.6852 28.1665 60.3202 28.3322 59.7892 28.3795C59.0307 28.4458 58.0778 28.1665 57.3382 27.66C57.0727 27.4802 57.0585 27.4754 56.8925 27.5748C56.7977 27.6316 56.7219 27.6932 56.7219 27.7121C56.7219 27.731 56.7882 28.0008 56.8688 28.3132L57.0111 28.8812L57.3477 29.0848Z" fill="#3F3F48"/>
<path d="M66.4548 27.8115C66.9289 28.7771 67.9103 29.435 69.1334 29.6054L69.1429 29.6007C69.6217 29.667 70.4134 29.6244 70.9444 29.5013C71.8404 29.293 72.7459 28.6209 73.1204 27.8825C73.5044 27.1299 73.4997 27.1535 73.5282 23.4947L73.5519 20.134H72.855H72.158L72.1391 23.4947V23.4967C72.1249 26.8506 72.1248 26.8554 71.9779 27.1725C71.6697 27.8446 71.0914 28.2328 70.257 28.3369C68.9295 28.5026 67.915 27.9819 67.6021 26.969C67.4788 26.5808 67.4741 26.3773 67.4741 23.3479V20.134H66.7772H66.0803V23.3385C66.0803 26.8601 66.0993 27.0873 66.4548 27.8115Z" fill="#3F3F48"/>
<path d="M99.7308 23.2154C100.077 23.6225 101.485 25.2413 102.855 26.8128L105.349 29.6622H105.624H105.899V24.8957V20.1293H105.235H104.571V23.5089V26.8885L103.798 25.9892C103.41 25.5315 102.254 24.2069 101.144 22.9356L100.859 22.6095L98.6925 20.134H98.1853H97.678V24.8058V29.4776H98.3749H99.0718L99.086 25.975L99.1002 22.4723L99.7308 23.2154Z" fill="#3F3F48"/>
<path d="M109.928 27.1441C110.696 28.4883 112.043 29.3877 113.621 29.6054L113.631 29.6102C114.498 29.7332 115.907 29.5676 116.551 29.2741C116.882 29.1232 116.883 29.1179 116.991 28.6924L116.992 28.6872C117.049 28.4505 117.111 28.2091 117.13 28.1523C117.149 28.0908 117.096 28.0103 116.997 27.944C116.84 27.8446 116.822 27.8446 116.494 28.0008C116.039 28.2138 115.485 28.3369 114.755 28.3842C112.953 28.4978 111.474 27.5795 110.914 25.9986C110.692 25.3738 110.677 24.3703 110.881 23.7077C111.118 22.9409 111.663 22.2261 112.351 21.7859C113.437 21.0901 115.086 21.0286 116.328 21.6392C116.589 21.767 116.831 21.8759 116.864 21.8759C116.916 21.8806 117.144 20.9955 117.149 20.7541C117.153 20.6689 117.021 20.5789 116.693 20.4275C115.968 20.0961 115.366 19.9825 114.337 19.9873C113.569 19.992 113.38 20.0157 112.896 20.1624C111.469 20.5979 110.431 21.4451 109.8 22.6995C109.151 23.9822 109.208 25.885 109.928 27.1441Z" fill="#3F3F48"/>
<path d="M39.9014 20.134V24.8058V29.4776H40.5983H41.2952V24.8058V20.134H40.5983H39.9014Z" fill="#3F3F48"/>
<path d="M120.368 20.134V24.8058L120.377 29.4871H123.188H126V28.886V28.2848H123.881H121.761V26.8317V25.3785H123.279H124.796V24.7774V24.1763H123.279H121.761V22.7563V21.3363H123.625H125.488V20.7351V20.134H122.928H120.368Z" fill="#3F3F48"/>
<path fill-rule="evenodd" clip-rule="evenodd" d="M77.3208 24.8058V20.134H78.9469C80.1037 20.134 80.6679 20.1577 80.8907 20.2192C81.6871 20.4322 82.3224 20.9481 82.6543 21.6487C82.8344 22.0321 82.8486 22.1078 82.8486 22.7515C82.8486 23.3811 82.8344 23.4805 82.6685 23.8355C82.4741 24.2567 81.9384 24.8247 81.5544 25.0188C81.4359 25.0803 81.3268 25.1371 81.3174 25.1466C81.3079 25.1561 81.9905 26.098 82.8391 27.2388C83.6878 28.3795 84.3989 29.3498 84.4273 29.3924C84.4653 29.454 84.2946 29.4729 83.6641 29.4682L82.8534 29.4634L81.3695 27.4186L79.8856 25.3738H79.2693H78.653V27.4233V29.4729H77.9893H77.3256V24.8011L77.3208 24.8058ZM81.4074 23.3101C81.2937 23.5751 80.957 23.8875 80.6394 24.0248V24.0201C80.4545 24.1005 80.1511 24.1384 79.5158 24.1573L78.6483 24.1857V22.7515V21.3173L79.5158 21.3457C80.483 21.3789 80.739 21.4499 81.104 21.7954C81.3837 22.0605 81.4928 22.3303 81.4928 22.7563C81.4928 22.9503 81.4548 23.1965 81.4074 23.3101Z" fill="#3F3F48"/>
<path fill-rule="evenodd" clip-rule="evenodd" d="M86.3237 29.364C86.3426 29.3025 87.2055 27.1678 88.2437 24.6165L90.1306 19.9778L90.4435 19.9589L90.7564 19.9399L92.6527 24.6212C93.6957 27.1961 94.5585 29.3404 94.568 29.3877C94.5822 29.454 94.4353 29.4729 93.8948 29.4729H93.2026L93.013 29.0138C92.9087 28.7629 92.6764 28.1949 92.4962 27.75L92.1644 26.9453L90.4198 26.9642L88.6751 26.9832L88.1726 28.228L87.6701 29.4729H86.9827C86.3569 29.4729 86.3 29.4634 86.3332 29.364H86.3237ZM91.2488 24.6615C91.4157 25.095 91.5456 25.4324 91.5765 25.5158L91.6619 25.7525H90.434C89.7608 25.7525 89.2061 25.7336 89.2061 25.7099C89.2061 25.6862 89.4811 24.9667 89.8177 24.1053L90.4292 22.5433L90.9602 23.9112C91.0607 24.1727 91.16 24.4307 91.2488 24.6615Z" fill="#3F3F48"/>
<path d="M98.8639 4.48936C99.3042 5.0154 101.448 7.48707 103.627 9.98036L107.59 14.5346H108.052H108.514V7.2781V0.021617H107.453H106.392L106.37 5.13069L106.348 10.2398L105.627 9.38225C105.23 8.90666 103.245 6.62234 101.21 4.29479L97.5143 0.0648578L96.7564 0.0360306L95.9986 0.00720345V7.11957V14.2319H97.009H98.0195L98.0411 8.88504L98.0628 3.53816L98.8639 4.48936Z" fill="#3F3F48"/>
<path d="M56.8223 0.0144069V7.12677L56.8367 14.2535H61.1166H65.3966V13.3384V12.4232H62.1704H58.9442V10.211V7.9987H61.2538H63.5634V7.08354V6.16836H61.2538H58.9442V4.00655V1.84475H61.7807H64.6171V0.92958V0.0144069H60.7197H56.8223Z" fill="#3F3F48"/>
<path d="M70.1024 0.0144069V7.12677V14.2391H71.1633H72.2243V11.1189V7.9987H74.6782H77.1322V7.08354V6.16836H74.6782H72.2243V4.00655V1.84475H75.1113H77.9983V0.92958V0.0144069H74.0503H70.1024Z" fill="#3F3F48"/>
<path d="M82.7113 0.0144069V7.12677V14.2391H86.9479H91.1846V13.3312V12.4232L87.9872 12.3944L84.7899 12.3656L84.761 10.1821L84.7322 7.9987H87.0923H89.4524V7.08354V6.16836H87.0923H84.7322V4.00655V1.84475H87.5686H90.4051V0.92958V0.0144069H86.5582H82.7113Z" fill="#3F3F48"/>
<path fill-rule="evenodd" clip-rule="evenodd" d="M114.273 7.12677V0L117.088 0.0360306C119.831 0.0720608 119.924 0.0792587 120.762 0.338676C123.577 1.19619 125.352 3.02653 125.872 5.58468C126.088 6.65838 126.023 8.33018 125.727 9.28858C125.172 11.0613 123.959 12.4592 122.212 13.3168C120.653 14.0878 120.206 14.1599 117.037 14.2103L114.273 14.2535V7.12677ZM123.367 9.51197C122.754 10.8019 121.563 11.6954 119.896 12.1205C119.109 12.3151 116.496 12.4881 116.366 12.3512C116.33 12.3079 116.294 9.9155 116.294 7.04029V1.80872L117.759 1.86636C119.426 1.93122 120.177 2.08254 121.151 2.55814C122.848 3.38684 123.75 4.7776 123.865 6.73764C123.93 7.8762 123.8 8.5968 123.367 9.51197Z" fill="#3F3F48"/>
<path fill-rule="evenodd" clip-rule="evenodd" d="M39.7891 7.12677V0L42.6544 0.0360306C45.4476 0.0720608 45.5342 0.0792587 46.3786 0.338676C48.9913 1.13855 50.7596 2.84638 51.3947 5.15952C51.6329 6.03865 51.6834 7.59516 51.503 8.56077C51.106 10.6793 49.612 12.5313 47.5478 13.4681C46.1909 14.0806 45.6857 14.1599 42.6111 14.2031L39.7963 14.2463L39.7891 7.12677ZM49.5038 7.12677C49.5038 9.62726 48.017 11.4864 45.4981 12.1278V12.1205C45.0145 12.2431 44.2422 12.3295 43.3256 12.3728L41.9038 12.4376V7.12677V1.81592L43.3689 1.87357C44.1845 1.90239 45.1156 1.99607 45.462 2.08255C47.9809 2.70227 49.5038 4.59745 49.5038 7.12677Z" fill="#3F3F48"/>
</svg>
