<svg xmlns="http://www.w3.org/2000/svg" viewBox="0 0 343.43 85.04">
<rect fill="#501E82" width="65.57" height="85.04"/>
<polygon fill="#FFFFFF" points="32.31,56.33 32.31,19.38 22.99,19.38 22.99,65.66 50.02,65.66 50.02,56.33 "/>
<rect x="69.67" fill="#781E82" width="65.57" height="85.04"/>
<rect x="97.79" y="19.38" fill="#FFFFFF" width="9.32" height="46.27"/>
<rect x="139.34" fill="#A50F82" width="65.57" height="85.04"/>
<polygon fill="#FFFFFF" points="181.88,19.38 181.88,50.28 163.15,19.38 153.05,19.38 153.05,65.66 162.38,65.66 162.38,34.76 181.13,65.66 191.2,65.66 191.2,19.38 "/>
<rect x="209.01" fill="#E6007D" width="65.57" height="85.04"/>
<polygon fill="#FFFFFF" points="261.52,19.38 251.19,19.38 239.16,37.86 233.11,37.86 233.11,19.38 223.78,19.38 223.78,65.66 233.11,65.66 233.11,47.18 239.16,47.18 251.19,65.66 261.52,65.66 246.44,42.52 "/>
<path fill="#6E6E6E" d="M319.32,49.32V19.38H309.1l-19.43,29.94v9.32H310v7.01h9.32 v-7.01h5.71v-9.32L319.32,49.32z M310,49.32h-10.21L310,33.44V49.32z"/>
<rect x="340.16" fill="#6E6E6E" width="3.28" height="85.04"/>
</svg>
