<?xml version="1.0" encoding="UTF-8"?><svg id="a" xmlns="http://www.w3.org/2000/svg" width="462.19" height="213.74" xmlns:xlink="http://www.w3.org/1999/xlink" viewBox="0 0 462.19 213.74">
<title>Proama logo - Brandlogos.net</title><defs><clipPath id="b"><rect width="462.19" height="213.74" style="fill:none;"/></clipPath><clipPath id="c"><rect width="462.19" height="213.74" style="fill:none;"/></clipPath><clipPath id="d"><rect width="462.19" height="213.74" style="fill:none;"/></clipPath><clipPath id="e"><rect width="462.19" height="213.74" style="fill:none;"/></clipPath></defs><g style="clip-path:url(#b);"><path d="M88.46,61.09c2.42,1.66,8.3,5,16.94,1.94,90.22-31.92,96.26-38.75,157.23-7.79,21.6,10.96,35.44,2.17,36.37,1.24-69.78-81.56-62.52-45-210.53,4.6" style="fill:#f49432;"/><path d="M88.46,61.09c2.42,1.66,8.3,5,16.94,1.94,90.22-31.92,96.26-38.75,157.23-7.79,21.6,10.96,35.44,2.17,36.37,1.24-69.78-81.56-62.52-45-210.53,4.6" style="fill:#f49432;"/></g><path d="M88.46,61.09c2.42,1.66,8.3,5,16.94,1.94,90.22-31.92,96.26-38.75,157.23-7.79,21.6,10.96,35.44,2.17,36.37,1.24-69.78-81.56-62.52-45-210.53,4.6Z" style="fill:none; stroke:#fff; stroke-linecap:round; stroke-linejoin:round; stroke-width:.72px;"/><g style="clip-path:url(#c);"><path d="M89.85,61.08c2.7,1.66,8.96,4.1,18.88,1.98,140.56-30.09,126.8-44.34,191.4-6.52,20.6,12.05,34.97,2.23,35.99,1.29-77.92-81.8-80.37-68.73-246.27,3.25" style="fill:#006533;"/></g><path d="M89.85,61.08c2.7,1.66,8.96,4.1,18.88,1.98,140.56-30.09,126.8-44.34,191.4-6.52,20.6,12.05,34.97,2.23,35.99,1.29-77.92-81.8-80.37-68.73-246.27,3.25Z" style="fill:none; stroke:#fff; stroke-linecap:round; stroke-linejoin:round; stroke-width:.72px;"/><g style="clip-path:url(#d);"><path d="M282.22,9.87c-55.33-20.94-73.93,1.45-192.38,51.22,2.7,1.66,9.06,4.54,18.87,1.98,56.69-14.83,88.97-25.24,111.02-30.07,35.07-7.67,78.53-14.48,62.49-23.13" style="fill:#006533;"/></g><path d="M282.22,9.87c-55.33-20.94-73.93,1.45-192.38,51.22,2.7,1.66,9.06,4.54,18.87,1.98,56.69-14.83,88.97-25.24,111.02-30.07,35.07-7.67,78.53-14.48,62.49-23.13Z" style="fill:none; stroke:#fff; stroke-linecap:round; stroke-linejoin:round; stroke-width:.72px;"/><g style="clip-path:url(#e);"><path d="M89.85,61.09c3.01,1.68,15.73,6.68,41.97.67,140.93-32.28,127.8-53.79,204.1-4.32,22.76,14.75,41.75,2.63,42.89,1.7-92.25-82.25-97.65-67.57-288.97,1.95" style="fill:#95c11f;"/></g><path d="M89.85,61.09c3.01,1.68,15.73,6.68,41.97.67,140.93-32.28,127.8-53.79,204.1-4.32,22.76,14.75,41.75,2.63,42.89,1.7-92.25-82.25-97.65-67.57-288.97,1.95Z" style="fill:none; stroke:#fff; stroke-linecap:round; stroke-linejoin:round; stroke-width:.72px;"/><path d="M0,92.85c1.53-.15,3.33-.3,5.42-.46,2.08-.15,4.27-.29,6.57-.4,2.3-.12,4.59-.22,6.88-.29,2.29-.08,4.5-.12,6.64-.12,5.6,0,10.93.43,15.96,1.26,5.04.84,9.47,2.29,13.29,4.34,3.82,2.06,6.85,4.79,9.09,8.19,2.25,3.39,3.36,7.64,3.36,12.76s-1.2,9.77-3.59,13.31c-2.4,3.56-5.55,6.4-9.46,8.53-3.92,2.14-8.38,3.64-13.37,4.52-4.99.88-10.09,1.32-15.28,1.32-1.94,0-3.64-.02-5.11-.06-1.48-.04-3.09-.13-4.81-.28v29.74c-2.45.23-5.03.33-7.79.33-1.23,0-2.52,0-3.9-.05-1.37-.04-2.67-.14-3.89-.29v-82.36ZM15.58,135.28c1.63.16,3.06.28,4.28.34,1.21.07,2.99.12,5.34.12,3.15,0,6.29-.25,9.39-.74,3.11-.5,5.88-1.4,8.33-2.7,2.44-1.28,4.4-3.07,5.88-5.32,1.47-2.24,2.22-5.17,2.22-8.74,0-3.13-.64-5.76-1.92-7.91-1.27-2.13-3.03-3.84-5.27-5.14s-4.94-2.21-8.09-2.74c-3.16-.54-6.58-.81-10.24-.81s-7.08.12-9.92.34v33.29Z" style="fill:#003b71;"/><path d="M78.97,116.53c1.12-.15,2.2-.26,3.21-.34,1.01-.08,2.09-.11,3.21-.11s2.24.03,3.36.11c1.12.08,2.14.19,3.06.34.31,1.15.6,2.65.91,4.53.31,1.86.47,3.44.47,4.74,2.13-2.59,4.97-4.84,8.48-6.75,3.51-1.91,8.02-2.86,13.52-2.86.81,0,1.65.02,2.52.06.86.05,1.6.1,2.21.17.2.68.35,1.42.46,2.18.1.76.15,1.56.15,2.4,0,.91-.08,1.88-.23,2.86-.15,1-.33,1.94-.53,2.86-.82-.16-1.66-.24-2.53-.24h-2.06c-2.76,0-5.37.28-7.87.86-2.49.58-4.74,1.59-6.72,3.04-1.99,1.45-3.57,3.43-4.74,5.95-1.16,2.52-1.75,5.75-1.75,9.72v29.17c-1.12.15-2.36.25-3.74.34-1.38.07-2.62.1-3.74.1s-2.37-.03-3.74-.1c-1.38-.09-2.67-.19-3.89-.34v-58.69Z" style="fill:#003b71;"/><path d="M159.01,176.59c-6.11,0-11.46-.78-16.04-2.35-4.58-1.56-8.4-3.71-11.45-6.46-3.06-2.75-5.32-5.99-6.8-9.73-1.48-3.74-2.21-7.78-2.21-12.12s.74-8.39,2.21-12.13c1.48-3.74,3.74-6.97,6.8-9.72,3.06-2.74,6.87-4.92,11.45-6.52,4.57-1.61,9.92-2.41,16.04-2.41s11.45.81,16.04,2.41c4.58,1.59,8.39,3.77,11.45,6.52,3.06,2.75,5.32,5.99,6.8,9.72,1.48,3.74,2.22,7.78,2.22,12.13s-.74,8.38-2.22,12.12c-1.48,3.74-3.74,6.98-6.8,9.73-3.06,2.74-6.88,4.9-11.45,6.46-4.59,1.57-9.94,2.35-16.04,2.35M159.01,167.55c7.02,0,12.22-1.89,15.58-5.71,3.35-3.81,5.03-9.11,5.03-15.9s-1.68-12.08-5.03-15.86c-3.36-3.77-8.56-5.65-15.58-5.65s-12.2,1.88-15.5,5.65c-3.31,3.78-4.97,9.06-4.97,15.86s1.65,12.09,4.97,15.9c3.31,3.82,8.48,5.71,15.5,5.71" style="fill:#003b71;"/><path d="M250.5,136.55c0-4.49-1.53-7.62-4.58-9.39-3.07-1.74-7.48-2.63-13.29-2.63-3.57,0-6.9.22-10.01.63-3.11.42-6.14.97-9.09,1.66-1.93-2.51-2.9-5.52-2.9-9.04,3.45-.84,7.28-1.48,11.45-1.93,4.17-.47,8.2-.7,12.08-.7,10.18,0,17.92,1.74,23.21,5.21,5.29,3.48,7.95,9.03,7.95,16.65v36.71c-3.57.62-7.9,1.24-12.99,1.89-5.09.64-10.29.98-15.58.98-4.99,0-9.49-.35-13.52-1.04-4.02-.68-7.43-1.78-10.23-3.31-2.8-1.53-4.96-3.47-6.49-5.84-1.53-2.36-2.3-5.22-2.3-8.57s.9-6.16,2.68-8.63c1.78-2.49,4.19-4.54,7.25-6.19,3.06-1.64,6.58-2.86,10.54-3.65,3.97-.81,8.14-1.2,12.52-1.2,3.26,0,5.93.06,8.02.17,2.08.12,3.85.25,5.27.4v-2.17ZM250.5,147.65c-1.53-.15-3.47-.3-5.81-.46-2.33-.15-4.32-.23-5.95-.23-6.32,0-11.13.88-14.44,2.64-3.31,1.75-4.97,4.41-4.97,8,0,2.29.56,4.08,1.68,5.38,1.12,1.29,2.52,2.28,4.2,2.97,1.68.7,3.53,1.11,5.57,1.25,2.03.16,3.97.24,5.8.24,2.34,0,4.77-.1,7.27-.3,2.49-.18,4.7-.48,6.64-.86v-18.64Z" style="fill:#003b71;"/><path d="M281.82,116.53c1.11-.15,2.2-.26,3.28-.34,1.07-.08,2.15-.11,3.28-.11s2.17.03,3.13.11c.97.08,2.01.19,3.13.34.3,1.15.62,2.65.91,4.53.31,1.86.47,3.44.47,4.74.91-1.38,2.06-2.69,3.43-3.94,1.38-1.26,3-2.38,4.89-3.38,1.88-.98,4.05-1.78,6.49-2.4,2.44-.61,5.15-.91,8.1-.91,6.11,0,10.82.94,14.12,2.8,3.32,1.87,5.84,4.49,7.57,7.84,1.01-1.3,2.26-2.59,3.74-3.89,1.48-1.29,3.13-2.43,4.96-3.43,1.84-.98,3.93-1.78,6.28-2.4,2.33-.61,4.98-.91,7.93-.91,9.06,0,15.66,1.9,19.79,5.73,4.12,3.8,6.18,9.44,6.18,16.92v37.4c-1.12.15-2.4.25-3.81.34-1.44.07-2.71.1-3.83.1s-2.37-.03-3.74-.1c-1.38-.09-2.63-.19-3.75-.34v-34.09c0-5.26-1.08-9.21-3.21-11.84-2.13-2.64-5.65-3.95-10.54-3.95-5.2,0-9.39,1.41-12.6,4.24-3.21,2.82-4.82,6.98-4.82,12.47v33.17c-1.13.15-2.36.25-3.74.34-1.37.07-2.62.1-3.74.1s-2.38-.03-3.75-.1c-1.37-.09-2.62-.19-3.74-.34v-34.89c0-5.12-1.02-8.95-3.06-11.5-2.04-2.56-5.29-3.83-9.78-3.83-2.55,0-4.94.42-7.18,1.27-2.24.83-4.21,2.09-5.88,3.76-1.68,1.68-3.01,3.8-3.98,6.35-.97,2.56-1.46,5.51-1.46,8.87v29.96c-1.12.15-2.37.25-3.73.34-1.39.07-2.64.1-3.75.1s-2.39-.03-3.82-.1c-1.43-.09-2.7-.19-3.81-.34v-58.69Z" style="fill:#003b71;"/><path d="M447.39,136.55c0-4.49-1.53-7.62-4.58-9.39-3.07-1.74-7.49-2.63-13.29-2.63-3.57,0-6.9.22-10.01.63-3.11.42-6.14.97-9.09,1.66-1.94-2.51-2.91-5.52-2.91-9.04,3.45-.84,7.29-1.48,11.45-1.93,4.17-.47,8.19-.7,12.08-.7,10.18,0,17.91,1.74,23.21,5.21,5.29,3.48,7.93,9.03,7.93,16.65v36.71c-3.55.62-7.88,1.24-12.98,1.89-5.09.64-10.28.98-15.58.98-4.99,0-9.49-.35-13.51-1.04-4.03-.68-7.43-1.78-10.24-3.31-2.81-1.53-4.96-3.47-6.49-5.84-1.53-2.36-2.3-5.22-2.3-8.57s.89-6.16,2.68-8.63c1.78-2.49,4.2-4.54,7.25-6.19,3.05-1.64,6.57-2.86,10.54-3.65,3.98-.81,8.14-1.2,12.52-1.2,3.26,0,5.94.06,8.02.17,2.09.12,3.84.25,5.27.4v-2.17ZM447.39,147.65c-1.53-.15-3.47-.3-5.8-.46s-4.33-.23-5.96-.23c-6.31,0-11.12.88-14.43,2.64-3.31,1.75-4.96,4.41-4.96,8,0,2.29.56,4.08,1.68,5.38,1.12,1.29,2.52,2.28,4.19,2.97,1.68.7,3.55,1.11,5.58,1.25,2.03.16,3.97.24,5.8.24,2.34,0,4.76-.1,7.25-.3,2.5-.18,4.72-.48,6.66-.86v-18.64Z" style="fill:#003b71;"/></svg>