<?xml version="1.0" encoding="UTF-8" standalone="no"?>
<svg
   xmlns:dc="http://purl.org/dc/elements/1.1/"
   xmlns:cc="http://creativecommons.org/ns#"
   xmlns:rdf="http://www.w3.org/1999/02/22-rdf-syntax-ns#"
   xmlns:svg="http://www.w3.org/2000/svg"
   xmlns="http://www.w3.org/2000/svg"
   xmlns:sodipodi="http://sodipodi.sourceforge.net/DTD/sodipodi-0.dtd"
   xmlns:inkscape="http://www.inkscape.org/namespaces/inkscape"
   width="225pt"
   height="39.11282pt"
   viewBox="0 0 225 39.112819"
   version="1.2"
   id="svg3586"
   sodipodi:docname="Warta TUiR Logo 11.03.2021.svg"
   inkscape:version="1.0.2-2 (e86c870879, 2021-01-15)">
  <metadata
     id="metadata3590">
    <rdf:RDF>
      <cc:Work
         rdf:about="">
        <dc:format>image/svg+xml</dc:format>
        <dc:type
           rdf:resource="http://purl.org/dc/dcmitype/StillImage" />
        <dc:title></dc:title>
      </cc:Work>
    </rdf:RDF>
  </metadata>
  <sodipodi:namedview
     pagecolor="#ffffff"
     bordercolor="#666666"
     borderopacity="1"
     objecttolerance="10"
     gridtolerance="10"
     guidetolerance="10"
     inkscape:pageopacity="0"
     inkscape:pageshadow="2"
     inkscape:window-width="1600"
     inkscape:window-height="837"
     id="namedview3588"
     showgrid="false"
     fit-margin-top="0"
     fit-margin-left="0"
     fit-margin-right="0"
     fit-margin-bottom="0"
     inkscape:zoom="3.3893987"
     inkscape:cx="148.44453"
     inkscape:cy="48.801124"
     inkscape:window-x="-8"
     inkscape:window-y="-8"
     inkscape:window-maximized="1"
     inkscape:current-layer="svg3586" />
  <defs
     id="defs469">
    <clipPath
       id="clip1">
      <path
         d="m 520,117.59375 h 10 v 11.38281 h -10 z m 0,0"
         id="path457" />
    </clipPath>
    <clipPath
       id="clip2">
      <path
         d="m 551,117.59375 h 10 v 11.38281 h -10 z m 0,0"
         id="path460" />
    </clipPath>
    <clipPath
       id="clip3">
      <path
         d="m 540,117.59375 h 10 v 11.38281 h -10 z m 0,0"
         id="path463" />
    </clipPath>
    <clipPath
       id="clip4">
      <path
         d="m 532,117.59375 h 8 v 11.38281 h -8 z m 0,0"
         id="path466" />
    </clipPath>
  </defs>
  <path
     style="fill:#b8073d;fill-opacity:1;fill-rule:nonzero;stroke:none;stroke-width:3.43614"
     d="m 212.57084,38.213518 h 12.42915 v -12.42912 h -12.42915 z m 0,0"
     id="path551" />
  <path
     style="fill:#003566;fill-opacity:1;fill-rule:nonzero;stroke:none;stroke-width:3.43614"
     d="M 51.9583,0.92607825 44.18672,27.032678 H 44.03897 L 35.95869,0.92607825 H 25.86504 L 18.33509,27.032678 H 18.17393 L 10.09365,0.92607825 H 0 L 12.96605,38.213518 h 9.63727 L 30.442,12.737798 h 0.16116 l 8.84537,25.47572 h 9.24802 L 61.3539,0.92607825 Z m 0,0"
     id="path553" />
  <g
     clip-path="url(#clip1)"
     clip-rule="nonzero"
     id="g557"
     transform="matrix(3.4361363,0,0,3.4361363,-1723.0478,-404.06822)">
    <path
       style="fill:#003566;fill-opacity:1;fill-rule:nonzero;stroke:none"
       d="m 525.19922,117.60938 c -1.1836,0 -2.99219,0.38281 -3.77344,0.72265 v 1.91016 c 0.74219,-0.24219 2.24609,-0.60547 3.45313,-0.60547 1.64843,0 2.42968,0.625 2.42968,2.53125 h -1.54687 c -1.1836,0 -2.57031,0.10156 -3.65235,0.625 -1.08593,0.51953 -1.85156,1.34375 -1.85156,2.94922 0,2.07031 1.8711,3.23437 3.79688,3.23437 1.28515,0 2.6914,-0.68359 3.35547,-1.86718 h 0.0391 l -0.0195,1.60546 h 2.44922 v -6.52734 c 0,-3.21094 -1.36329,-4.57812 -4.67969,-4.57812 m 1.28906,8.33593 c -0.44531,0.58203 -1.125,0.96094 -1.98828,0.96094 -1.00391,0 -1.78906,-0.39844 -1.78906,-1.32422 0,-1.66406 1.86718,-1.72656 3.13281,-1.72656 h 1.22656 c 0,0.84375 -0.12109,1.46484 -0.58203,2.08984"
       id="path555" />
  </g>
  <g
     clip-path="url(#clip2)"
     clip-rule="nonzero"
     id="g561"
     transform="matrix(3.4361363,0,0,3.4361363,-1723.0478,-404.06822)">
    <path
       style="fill:#003566;fill-opacity:1;fill-rule:nonzero;stroke:none"
       d="m 556.18359,117.60938 c -1.18359,0 -2.99218,0.38281 -3.77734,0.72265 v 1.91016 c 0.74609,-0.24219 2.25,-0.60547 3.45312,-0.60547 1.64844,0 2.4336,0.625 2.4336,2.53125 h -1.54688 c -1.1875,0 -2.57031,0.10156 -3.65625,0.625 -1.08203,0.51953 -1.84765,1.34375 -1.84765,2.94922 0,2.07031 1.86718,3.23437 3.79687,3.23437 1.28516,0 2.69141,-0.68359 3.35156,-1.86718 h 0.043 l -0.0195,1.60546 h 2.44922 v -6.52734 c 0,-3.21094 -1.36719,-4.57812 -4.67969,-4.57812 m 1.52735,8.33593 c -0.44532,0.58203 -1.125,0.96094 -1.98828,0.96094 -1.00391,0 -1.78907,-0.39844 -1.78907,-1.32422 0,-1.66406 1.86719,-1.72656 3.13282,-1.72656 h 1.22656 c 0,0.84375 -0.1211,1.46484 -0.58203,2.08984"
       id="path559" />
  </g>
  <g
     clip-path="url(#clip3)"
     clip-rule="nonzero"
     id="g565"
     transform="matrix(3.4361363,0,0,3.4361363,-1723.0478,-404.06822)">
    <path
       style="fill:#003566;fill-opacity:1;fill-rule:nonzero;stroke:none"
       d="m 548.89453,120.07422 v -2.21094 h -7.96094 v 2.21094 h 2.10938 v 5.37891 c 0,2.16796 1.09375,3.40234 3.32031,3.40234 0.85156,0 1.90625,-0.16406 2.83594,-0.48828 l -0.0195,-1.98047 c -0.40625,0.14062 -1.15235,0.32031 -2.02344,0.32031 -1.31641,0 -1.29688,-0.84765 -1.29688,-1.88281 v -4.75 z m 0,0"
       id="path563" />
  </g>
  <g
     clip-path="url(#clip4)"
     clip-rule="nonzero"
     id="g569"
     transform="matrix(3.4361363,0,0,3.4361363,-1723.0478,-404.06822)">
    <path
       style="fill:#003566;fill-opacity:1;fill-rule:nonzero;stroke:none"
       d="m 539.42578,117.66797 c -0.20703,-0.043 -0.41797,-0.0742 -0.64062,-0.0742 -1.42579,0 -2.6211,0.74609 -3.21094,1.98828 h -0.043 v -1.71875 h -2.71484 v 10.85156 h 2.71484 v -5.80859 c 0,-0.58984 0.35937,-2.73437 2.91406,-2.73437 0.32422,0 0.64844,0.0508 0.98047,0.125 z m 0,0"
       id="path567" />
  </g>
</svg>
